<svg width="800" height="638" viewBox="0 0 800 638" fill="none" xmlns="http://www.w3.org/2000/svg">
<path fill-rule="evenodd" clip-rule="evenodd" d="M166.163 0.666748C120.515 0.666748 86.739 40.6194 88.251 83.9481C89.7017 125.575 87.817 179.487 74.244 223.453C60.6307 267.547 37.6067 295.48 0 299.067V339.553C37.6067 343.14 60.6307 371.073 74.244 415.17C87.817 459.133 89.7017 513.047 88.251 554.673C86.739 597.997 120.515 637.953 166.169 637.953H633.897C679.547 637.953 713.317 598.003 711.803 554.673C710.353 513.047 712.237 459.133 725.81 415.17C739.43 371.073 762.393 343.14 800 339.553V299.067C762.393 295.48 739.43 267.547 725.81 223.453C712.237 179.494 710.353 125.575 711.803 83.9481C713.317 40.6261 679.547 0.666748 633.897 0.666748H166.163ZM542.373 392.957C542.373 452.62 497.87 488.803 424.02 488.803H298.305C294.709 488.803 291.26 487.373 288.717 484.83C286.174 482.287 284.746 478.84 284.746 475.243V163.379C284.746 159.782 286.174 156.334 288.717 153.791C291.26 151.248 294.709 149.819 298.305 149.819H423.303C484.88 149.819 525.293 183.175 525.293 234.389C525.293 270.333 498.11 302.517 463.47 308.15V310.03C510.623 315.203 542.373 347.853 542.373 392.957ZM410.313 192.802H338.63V294.05H399.003C445.673 294.05 471.41 275.257 471.41 241.663C471.41 210.185 449.28 192.802 410.313 192.802ZM338.63 334.227V445.807H412.95C461.54 445.807 487.28 426.307 487.28 389.663C487.28 353.013 460.82 334.22 409.823 334.22L338.63 334.227Z" fill="#712CF9"/>
</svg>
