<svg width="400" height="400" viewBox="0 0 400 400" fill="none" xmlns="http://www.w3.org/2000/svg">
<rect x="0.5" y="0.5" width="399" height="399" fill="white" stroke="#FAFAFA"/>
<mask id="path-2-inside-1_258_103" fill="white">
<path d="M0 0H400V51H0V0Z"/>
</mask>
<path d="M0 0H400V51H0V0Z" fill="#FAFAFA"/>
<path d="M0 0V-1H-1V0H0ZM400 0H401V-1H400V0ZM0 1H400V-1H0V1ZM399 0V51H401V0H399ZM1 51V0H-1V51H1Z" fill="#FAFAFA" mask="url(#path-2-inside-1_258_103)"/>
<rect x="12" y="82" width="172" height="19" fill="#00A67D"/>
<rect x="12" y="277" width="172" height="19" fill="#00A67D"/>
<rect x="12" y="313" width="240" height="19" fill="#00A67D"/>
<rect x="12" y="349" width="336" height="19" fill="#0291D9"/>
<rect x="12" y="171" width="172" height="19" fill="#00A67D"/>
<rect x="12" y="207" width="172" height="19" fill="#0291D9"/>
<rect x="12" y="118" width="172" height="19" fill="#00A67D"/>
<circle cx="24.5" cy="25.5" r="12.5" fill="#D9D9D9"/>
<rect x="327" y="21" width="26" height="9" fill="#D9D9D9"/>
<rect x="365" y="21" width="26" height="9" fill="#D9D9D9"/>
<rect x="289" y="21" width="26" height="9" fill="#D9D9D9"/>
</svg>
