<svg width="200" height="267" viewBox="0 0 200 267" fill="none" xmlns="http://www.w3.org/2000/svg">
<path d="M99.9662 147.958C109.824 147.958 117.816 139.967 117.816 130.108C117.816 120.25 109.824 112.258 99.9662 112.258C90.1079 112.258 82.1162 120.25 82.1162 130.108C82.1162 139.967 90.1079 147.958 99.9662 147.958Z" fill="#00D8FF"/>
<path d="M99.9648 98.0762C123.032 98.0762 144.944 101.328 161.602 107.063C180.103 113.432 191.389 122.849 191.389 130.105C191.389 137.833 179.201 147.867 159.411 154.424C143.656 159.644 122.577 162.489 99.9648 162.489C76.21 162.489 54.8932 159.699 39.3211 154.377C29.5722 151.044 21.5214 146.714 16.0031 141.988C11.0444 137.742 8.54093 133.526 8.54093 130.105C8.54093 122.825 19.3945 113.539 37.4966 107.227C54.1621 101.417 76.6105 98.0762 99.9648 98.0762ZM99.9648 89.5352C75.7032 89.5352 52.3146 93.0165 34.6849 99.1626C13.5179 106.542 0 118.108 0 130.105C0 142.495 14.5117 154.923 36.5587 162.458C53.1306 168.123 75.3438 171.03 99.9648 171.03C123.43 171.03 145.395 168.065 162.097 162.531C185.017 154.937 199.93 142.661 199.93 130.105C199.93 118.064 185.976 106.421 164.382 98.9874C146.774 92.9255 123.931 89.5352 99.9648 89.5352ZM72.0652 114.193C83.5886 94.2115 97.3525 76.8543 110.643 65.2883C125.403 52.4432 139.198 47.3713 145.483 50.9959C152.179 54.8567 154.782 70.4277 150.575 90.8462C147.226 107.102 139.161 126.784 127.864 146.372C115.997 166.95 102.931 184.022 90.5407 194.853C82.7839 201.634 75.0106 206.444 68.1601 208.864C62.0042 211.038 57.1012 211.1 54.1376 209.391C47.8312 205.754 45.2094 191.713 48.7855 172.879C52.0777 155.54 60.3977 134.425 72.0652 114.193ZM64.6664 109.926C52.5456 130.944 43.8772 152.944 40.3945 171.286C36.2129 193.309 39.4784 210.797 49.8708 216.79C60.6048 222.98 78.6199 216.618 96.1618 201.284C109.348 189.757 122.963 171.967 135.263 150.639C146.985 130.312 155.39 109.802 158.941 92.5695C163.812 68.9212 160.627 49.8695 149.75 43.597C139.32 37.5823 122.263 43.8536 105.036 58.8455C90.9878 71.071 76.6392 89.1655 64.6664 109.926ZM72.0919 146.418C60.5353 126.456 52.3715 105.863 48.9885 88.5725C45.2312 69.37 47.7267 54.885 54.0061 51.2499C60.6948 47.3776 75.4851 52.8986 91.0738 66.7403C103.485 77.7599 116.508 94.5768 127.837 114.147C139.739 134.705 148.005 154.551 151.2 170.695C153.201 180.801 153.487 189.938 152.161 197.082C150.971 203.501 148.576 207.78 145.615 209.493C139.315 213.141 125.841 208.4 111.309 195.896C97.9319 184.384 83.7935 166.631 72.0919 146.418ZM64.7003 150.698C76.8564 171.695 91.5871 190.192 105.738 202.37C122.73 216.991 139.512 222.896 149.894 216.885C160.618 210.677 164.103 191.892 159.578 169.036C156.178 151.856 147.564 131.175 135.229 109.868C123.472 89.5598 109.902 72.0355 96.7446 60.3536C78.6901 44.3225 60.5935 37.5673 49.7269 43.8583C39.3068 49.8904 36.2213 67.8005 40.6065 90.2126C44.1824 108.489 52.693 129.957 64.7003 150.698Z" fill="#00D8FF"/>
<path d="M21.1072 24.0567C20.928 24.5791 21.2063 25.1479 21.7287 25.3271L30.2417 28.2474C30.7641 28.4266 31.3329 28.1483 31.5121 27.6259C31.6913 27.1035 31.4131 26.5348 30.8907 26.3556L23.3235 23.7598L25.9193 16.1926C26.0985 15.6702 25.8203 15.1014 25.2979 14.9222C24.7755 14.743 24.2067 15.0213 24.0275 15.5437L21.1072 24.0567ZM172.539 23.1612C142.84 6.64089 119.663 -0.454172 96.5721 0.209974C73.505 0.873422 50.6516 9.27863 21.6137 23.4829L22.4925 25.2795C51.4779 11.1009 74.01 2.85972 96.6296 2.20915C119.225 1.55927 142.037 8.48256 171.567 24.909L172.539 23.1612Z" fill="black"/>
<path d="M172.945 242.322C173.123 241.799 172.843 241.231 172.32 241.053L163.799 238.156C163.276 237.978 162.708 238.258 162.53 238.781C162.353 239.304 162.632 239.872 163.155 240.049L170.729 242.625L168.154 250.199C167.976 250.722 168.256 251.29 168.779 251.468C169.302 251.645 169.87 251.366 170.047 250.843L172.945 242.322ZM21.5162 243.625C51.2593 260.065 74.4549 267.098 97.5444 266.371C120.61 265.646 143.44 257.179 172.44 242.897L171.556 241.103C142.609 255.359 120.099 263.661 97.4815 264.372C74.8879 265.083 52.0578 258.221 22.4838 241.874L21.5162 243.625Z" fill="black"/>
</svg>
