<svg width="748" height="566" viewBox="0 0 748 566" fill="none" xmlns="http://www.w3.org/2000/svg">
<line x1="251.419" y1="307.728" x2="373.419" y2="495.728" stroke="#D9D9D9"/>
<line x1="373.393" y1="82.6908" x2="698.393" y2="495.691" stroke="#D9D9D9"/>
<line x1="71.6039" y1="465.695" x2="366.604" y2="82.6949" stroke="#D9D9D9"/>
<ellipse cx="220.409" cy="274.396" rx="49.4092" ry="57.3958" fill="#D9D9D9"/>
<ellipse cx="373.409" cy="57.3958" rx="49.4092" ry="57.3958" fill="#D9D9D9"/>
<ellipse cx="501.233" cy="274.577" rx="49.4092" ry="57.3958" fill="#D9D9D9"/>
<ellipse cx="49.4092" cy="508.396" rx="49.4092" ry="57.3958" fill="#0291D9"/>
<ellipse cx="373.758" cy="507.604" rx="49.4092" ry="57.3958" fill="#0291D9"/>
<ellipse cx="698.409" cy="508.396" rx="49.4092" ry="57.3958" fill="#D9D9D9"/>
<ellipse cx="220.409" cy="274.396" rx="49.4092" ry="57.3958" fill="#D9D9D9"/>
<ellipse cx="373.409" cy="57.3958" rx="49.4092" ry="57.3958" fill="#D9D9D9"/>
<ellipse cx="501.233" cy="274.577" rx="49.4092" ry="57.3958" fill="#D9D9D9"/>
<ellipse cx="49.4092" cy="508.396" rx="49.4092" ry="57.3958" fill="#0291D9"/>
<ellipse cx="373.758" cy="507.604" rx="49.4092" ry="57.3958" fill="#0291D9"/>
<ellipse cx="698.409" cy="508.396" rx="49.4092" ry="57.3958" fill="#D9D9D9"/>
</svg>
