<svg width="78" height="78" viewBox="0 0 78 78" fill="none" xmlns="http://www.w3.org/2000/svg">
<g clip-path="url(#clip0_241_69)">
<path d="M0 0V77.483H77.483V0H0ZM42.166 60.43C42.166 67.971 37.738 71.412 31.287 71.412C25.458 71.412 22.087 68.403 20.356 64.753L26.288 61.173C27.429 63.197 28.467 64.909 30.975 64.909C33.362 64.909 34.884 63.975 34.884 60.326V35.576H42.165L42.166 60.43ZM59.392 71.412C52.63 71.412 48.254 68.195 46.127 63.975L52.059 60.55C53.616 63.092 55.659 64.978 59.237 64.978C62.246 64.978 64.183 63.478 64.183 61.378C64.183 58.887 62.211 58.005 58.873 56.535L57.057 55.757C51.799 53.526 48.323 50.707 48.323 44.775C48.323 39.31 52.491 35.159 58.977 35.159C63.612 35.159 66.933 36.767 69.32 40.988L63.647 44.62C62.402 42.389 61.053 41.507 58.96 41.507C58.5232 41.4631 58.082 41.5107 57.6646 41.6467C57.2472 41.7827 56.8627 42.0043 56.5357 42.2972C56.2086 42.59 55.9462 42.9479 55.7652 43.3478C55.5841 43.7477 55.4883 44.181 55.484 44.62C55.484 46.799 56.833 47.681 59.963 49.048L61.779 49.826C67.971 52.472 71.447 55.188 71.447 61.275C71.447 67.813 66.293 71.41 59.392 71.41V71.412Z" fill="url(#paint0_linear_241_69)"/>
</g>
<defs>
<linearGradient id="paint0_linear_241_69" x1="38.7415" y1="0" x2="38.7415" y2="77.483" gradientUnits="userSpaceOnUse">
<stop stop-color="#0291D9"/>
<stop offset="1" stop-color="#5EC4F3"/>
</linearGradient>
<clipPath id="clip0_241_69">
<rect width="77.483" height="77.483" fill="white"/>
</clipPath>
</defs>
</svg>
