<svg width="108" height="81" viewBox="0 0 108 81" fill="none" xmlns="http://www.w3.org/2000/svg">
<g clip-path="url(#clip0_241_75)">
<path d="M50.8111 61.0931C50.7601 61.1941 50.7101 61.2751 50.8111 61.0931ZM92.7491 46.4471C89.3632 46.446 86.0224 47.2237 82.9851 48.7201C81.9921 46.7201 80.9651 44.9661 80.7971 43.6531C80.5107 42.2521 80.4482 40.8146 80.6121 39.3941C80.9366 37.8411 81.3639 36.3114 81.8911 34.8151C81.8741 34.6301 81.6551 33.7041 79.4841 33.6871C77.3131 33.6701 75.4441 34.1081 75.2271 34.6801C74.8436 35.7259 74.5453 36.8011 74.3351 37.8951C73.9481 39.8651 69.9941 46.9011 67.7551 50.5711C67.0685 49.4218 66.5626 48.1739 66.2551 46.8711C65.9686 45.4701 65.9062 44.0326 66.0701 42.6121C66.3947 41.0591 66.8219 39.5294 67.3491 38.0331C67.3321 37.8481 67.1131 36.9221 64.9431 36.9051C62.7731 36.8881 60.9031 37.3261 60.6841 37.8981C60.4651 38.4701 60.2291 39.8171 59.7921 41.1131C59.3551 42.4091 54.0881 54.1241 52.7101 57.1751C52.0001 58.7191 51.4001 59.9651 50.9591 60.8071C50.8921 60.9421 50.8411 61.0261 50.8071 61.0931C50.8581 61.0091 50.8911 60.9251 50.8911 60.9581C50.5211 61.6821 50.3021 62.0861 50.3021 62.0861V62.1031C50.0161 62.6421 49.6961 63.1301 49.5441 63.1301C49.2886 62.0259 49.3058 60.8761 49.5941 59.7801C50.3851 55.7061 52.2541 49.3801 52.2371 49.1581C52.2201 49.0401 52.5911 47.9461 51.0081 47.3581C50.6439 47.1868 50.2363 47.1304 49.8394 47.1965C49.4424 47.2626 49.075 47.448 48.7861 47.7281C48.6511 47.7281 48.5501 48.0651 48.5501 48.0651C48.5501 48.0651 50.2501 40.9271 45.2861 40.9271C42.1861 40.9271 37.8791 44.3271 35.7611 47.4081C34.4311 48.1321 31.5531 49.6971 28.5221 51.3641C27.3601 52.0041 26.1651 52.6641 25.0371 53.2831C24.9531 53.1991 24.8851 53.1151 24.8011 53.0301C18.7791 46.5991 7.65606 42.0541 8.12706 33.4181C8.30006 30.2751 9.39006 22.0051 29.5181 11.9751C46.0181 3.76005 59.2041 6.01605 61.4751 11.0321C64.7411 18.1861 54.4231 31.5021 37.2921 33.4211C30.7621 34.1451 27.3301 31.6211 26.4711 30.6771C25.5791 29.6841 25.4441 29.6331 25.1071 29.8181C24.5511 30.1181 24.9071 30.9961 25.1071 31.5181C25.6121 32.8481 27.7161 35.2051 31.3001 36.3831C34.4481 37.4101 42.1001 37.9831 51.3611 34.3971C61.7611 30.3911 69.8611 19.2301 67.4831 9.88705C65.0661 0.390055 49.3231 -2.72495 34.4371 2.56205C25.5671 5.71005 15.9751 10.6621 9.07506 17.1061C0.87806 24.7821 -0.43294 31.4651 0.10606 34.2601C2.02306 44.1751 15.6891 50.6391 21.1581 55.4201C20.8891 55.5721 20.6361 55.7061 20.4001 55.8411C17.6581 57.2041 7.24006 62.6581 4.63206 68.4161C1.68606 74.9481 5.12006 79.6271 7.37406 80.2671C14.4091 82.2201 21.6121 78.7011 25.4821 72.9271C29.3521 67.1531 28.8821 59.6111 27.0981 56.1771C27.0811 56.1271 27.0481 56.0931 27.0311 56.0421C27.7381 55.6211 28.4621 55.2001 29.1861 54.7791C30.5861 53.9541 31.9451 53.1971 33.1401 52.5401C32.3353 54.8524 31.8593 57.2663 31.7261 59.7111C31.4261 63.4111 32.9551 68.2111 34.9411 70.0971C35.2957 70.4019 35.7074 70.6333 36.1521 70.7778C36.5969 70.9224 37.066 70.9772 37.5321 70.9391C39.8551 70.9391 40.8991 69.0201 42.0591 66.7311C43.4901 63.9371 44.7521 60.6881 44.7521 60.6881C44.7521 60.6881 43.1701 69.4751 47.5001 69.4751C49.0811 69.4751 50.6631 67.4381 51.3721 66.3941V66.4111C51.3721 66.4111 51.4061 66.3441 51.4901 66.2111C51.6581 65.9581 51.7431 65.8111 51.7431 65.8111V65.7611C52.3831 64.6671 53.7801 62.1611 55.8821 58.0171C58.6001 52.6591 61.2121 45.9751 61.2121 45.9751C61.4641 47.4441 61.8129 48.8949 62.2561 50.3181C62.8926 52.0506 63.6463 53.7379 64.5121 55.3681C63.8721 56.2431 63.4851 56.7481 63.4851 56.7481C63.4862 56.7611 63.4923 56.7733 63.5021 56.7821C62.9971 57.4551 62.4251 58.1821 61.8351 58.8821C59.6821 61.4411 57.1221 64.3701 56.7851 65.2121C56.5558 65.5843 56.4769 66.0299 56.5644 66.4582C56.6519 66.8866 56.8992 67.2655 57.2561 67.5181C58.0644 67.9502 58.9944 68.0985 59.8971 67.9391C61.2587 67.8694 62.5976 67.5617 63.8531 67.0301C65.0638 66.5963 66.2081 65.9958 67.2531 65.2461C68.3271 64.5038 69.1918 63.4975 69.7638 62.3239C70.3359 61.1504 70.596 59.8493 70.5191 58.5461C70.3931 56.9035 69.977 55.2964 69.2901 53.7991C69.4751 53.5301 69.6771 53.2431 69.8621 52.9571C72.0531 49.6906 74.0264 46.2832 75.7691 42.7571C76.0211 44.2261 76.3699 45.6769 76.8131 47.1001C77.336 48.5908 77.977 50.0373 78.7301 51.4261C76.2108 53.3664 74.2342 55.9233 72.9911 58.8501C71.7451 62.4361 72.7221 64.0501 74.5571 64.4221C75.5519 64.4832 76.5452 64.28 77.4361 63.8331C78.7359 63.4002 79.9615 62.7702 81.0701 61.9651C83.1701 60.4161 85.2091 58.2451 85.0701 55.2991C84.9824 53.9455 84.6754 52.6152 84.1611 51.3601C87.4808 50.0557 91.0829 49.638 94.6131 50.1481C103.986 51.2421 105.821 57.1001 105.467 59.5411C105.3 60.4147 104.947 61.2423 104.433 61.9682C103.919 62.694 103.256 63.3013 102.487 63.7491C101.83 64.1491 101.628 64.3051 101.679 64.6081C101.763 65.0461 102.066 65.0291 102.622 64.9281C104.031 64.4841 105.272 63.624 106.182 62.4611C107.092 61.2982 107.629 59.887 107.722 58.4131C107.991 52.6901 102.488 46.3941 92.7401 46.4441L92.7491 46.4471ZM20.5001 70.8061C17.4001 74.1901 13.0611 75.4691 11.1941 74.3921C9.19406 73.2271 9.98206 68.2481 13.8021 64.6421C16.0639 62.6051 18.5074 60.7795 21.1021 59.1881C21.5571 58.9191 22.2131 58.5151 23.0211 58.0261C23.1561 57.9421 23.2211 57.9081 23.2211 57.9081C23.3731 57.8081 23.5411 57.7231 23.7091 57.6221C24.3916 59.9063 24.4542 62.3309 23.8903 64.6473C23.3263 66.9636 22.1562 69.0882 20.5001 70.8031V70.8061ZM43.1191 55.4201C42.0421 58.0631 39.7711 64.7961 38.3901 64.4431C37.2121 64.1431 36.4901 59.0061 38.1541 53.9561C38.9992 51.5167 40.2453 49.2354 41.8411 47.2061C43.5411 45.3061 45.4081 44.6981 45.8411 45.4551C46.4361 46.4471 43.7931 53.7751 43.1191 55.4201ZM61.8001 64.3421C61.3451 64.5781 60.9251 64.7291 60.7231 64.6111C60.5721 64.5271 60.9081 64.2111 60.9081 64.2111C60.9081 64.2111 63.2481 61.7031 64.1741 60.5581C64.7131 59.8851 65.3361 59.0931 66.0071 58.2181C66.0071 58.3021 66.0241 58.3861 66.0241 58.4871C66.0021 61.5001 63.1081 63.5371 61.7951 64.3451L61.8001 64.3421ZM76.2061 61.0591C75.8691 60.8231 75.9201 60.0321 77.0481 57.5741C77.8269 55.9984 78.9152 54.5958 80.2481 53.4501C80.4465 54.0363 80.5544 54.6493 80.5681 55.2681C80.5834 56.5791 80.1641 57.8584 79.3757 58.906C78.5873 59.9537 77.4741 60.7107 76.2101 61.0591H76.2061Z" fill="url(#paint0_linear_241_75)"/>
</g>
<defs>
<linearGradient id="paint0_linear_241_75" x1="53.866" y1="0.00012207" x2="53.866" y2="80.8097" gradientUnits="userSpaceOnUse">
<stop stop-color="#0291D9"/>
<stop offset="1" stop-color="#5EC4F3"/>
</linearGradient>
<clipPath id="clip0_241_75">
<rect width="107.735" height="80.809" fill="white"/>
</clipPath>
</defs>
</svg>
