<svg width="84" height="84" viewBox="0 0 84 84" fill="none" xmlns="http://www.w3.org/2000/svg">
<g clip-path="url(#clip0_241_65)">
<path d="M54.353 52.05C54.353 59.936 46.967 59.75 46.186 59.75H31.145V44.567H46.186C54.1 44.567 54.353 50.499 54.353 52.053V52.05ZM45.028 38.45C45.153 38.45 52.176 38.636 52.176 31.698C52.176 28.812 51.523 25.028 45.028 25.028H31.145V38.45H45.028ZM83.306 13.88V69.421C83.2952 73.1002 81.8288 76.6256 79.2272 79.2272C76.6256 81.8288 73.1002 83.2952 69.421 83.306H13.885C10.2058 83.2952 6.68037 81.8288 4.07877 79.2272C1.47717 76.6256 0.0108162 73.1002 0 69.421L0 13.885C0.0108162 10.2058 1.47717 6.68037 4.07877 4.07877C6.68037 1.47717 10.2058 0.0108162 13.885 0H69.421C73.1002 0.0108162 76.6256 1.47717 79.2272 4.07877C81.8288 6.68037 83.2952 10.2058 83.306 13.885V13.88ZM62.861 53.156C62.861 49.145 61.624 42.317 53.74 40.632V40.496C55.8368 39.7185 57.6356 38.3008 58.8818 36.4439C60.1279 34.587 60.7581 32.385 60.683 30.15C60.683 28.85 61.055 18.104 46.253 18.104H22.638V66.699C46.482 66.699 48.647 67.011 53.059 65.637C55.701 64.815 62.859 62.294 62.859 53.156H62.861Z" fill="url(#paint0_linear_241_65)"/>
</g>
<defs>
<linearGradient id="paint0_linear_241_65" x1="41.653" y1="0" x2="41.653" y2="83.306" gradientUnits="userSpaceOnUse">
<stop stop-color="#0291D9"/>
<stop offset="1" stop-color="#5EC4F3"/>
</linearGradient>
<clipPath id="clip0_241_65">
<rect width="83.306" height="83.306" fill="white"/>
</clipPath>
</defs>
</svg>
