<svg width="100" height="88" viewBox="0 0 100 88" fill="none" xmlns="http://www.w3.org/2000/svg">
<g clip-path="url(#clip0_241_73)">
<path d="M81.612 28.333C80.558 27.9817 79.5043 27.6484 78.451 27.333C78.627 26.611 78.783 25.889 78.939 25.167C81.339 13.536 79.759 4.18802 74.431 1.10502C69.299 -1.84198 60.931 1.22202 52.457 8.59902C51.618 9.32102 50.798 10.082 50.018 10.843C49.491 10.336 48.945 9.82802 48.398 9.34302C39.518 1.46102 30.619 -1.85598 25.292 1.24902C20.179 4.21302 18.656 13.014 20.8 24.021C21.015 25.114 21.249 26.187 21.522 27.28C20.273 27.631 19.044 28.022 17.892 28.431C7.474 32.041 0 37.74 0 43.633C0 49.722 7.962 55.833 18.793 59.533C19.671 59.826 20.549 60.118 21.447 60.372C21.154 61.543 20.901 62.694 20.666 63.885C18.617 74.716 20.217 83.303 25.33 86.249C30.599 89.293 39.459 86.171 48.085 78.619C48.768 78.019 49.451 77.39 50.134 76.726C50.993 77.565 51.89 78.365 52.788 79.146C61.14 86.328 69.395 89.235 74.488 86.289C79.757 83.245 81.474 74.014 79.25 62.773C79.0747 61.9144 78.8797 61.036 78.665 60.138C79.289 59.962 79.894 59.767 80.499 59.572C91.76 55.849 99.917 49.82 99.917 43.633C99.917 37.72 92.229 31.983 81.612 28.333ZM55.212 11.765C62.472 5.44202 69.243 2.96502 72.327 4.74002C75.627 6.63302 76.894 14.283 74.827 24.333C74.69 24.997 74.554 25.641 74.378 26.285C70.0508 25.3045 65.6631 24.6133 61.244 24.216C58.7073 20.5772 55.928 17.1136 52.925 13.849C53.686 13.127 54.425 12.444 55.208 11.761L55.212 11.765ZM32.633 53.765C33.633 55.465 34.643 57.165 35.716 58.819C32.6732 58.4862 29.6498 57.9956 26.658 57.349C27.5707 54.4024 28.6324 51.504 29.839 48.665C30.739 50.382 31.654 52.08 32.63 53.758L32.633 53.765ZM26.716 30.285C29.526 29.661 32.516 29.153 35.616 28.763C34.582 30.383 33.567 32.042 32.611 33.72C31.655 35.379 30.718 37.077 29.84 38.794C28.611 35.886 27.576 33.037 26.718 30.285H26.716ZM32.063 43.731C33.351 41.038 34.756 38.403 36.239 35.808C37.722 33.213 39.323 30.695 41 28.216C43.927 28.001 46.913 27.884 49.957 27.884C53.001 27.884 56.007 28.001 58.914 28.216C60.5727 30.6747 62.1533 33.192 63.656 35.768C65.1587 38.344 66.571 40.971 67.893 43.649C66.5857 46.3424 65.1807 48.9964 63.678 51.611C62.195 54.211 60.614 56.724 58.955 59.222C56.047 59.437 53.022 59.534 49.955 59.534C46.888 59.534 43.925 59.434 41.055 59.261C39.357 56.7824 37.757 54.2454 36.255 51.65C34.756 49.058 33.371 46.424 32.063 43.731ZM67.307 53.723C68.307 52.006 69.239 50.269 70.156 48.512C71.4026 51.3356 72.504 54.221 73.456 57.157C70.4292 57.843 67.3673 58.3641 64.284 58.718C65.337 57.079 66.331 55.401 67.307 53.723ZM70.117 38.794C69.2 37.077 68.263 35.359 67.287 33.681C66.331 32.0224 65.3357 30.383 64.301 28.763C67.3111 29.1318 70.3006 29.6528 73.258 30.324C72.3591 33.2002 71.3114 36.0274 70.117 38.794ZM50 16.839C52.0472 19.0642 53.9753 21.3961 55.776 23.825C51.912 23.649 48.028 23.649 44.164 23.825C46.075 21.308 48.046 18.966 50 16.839ZM27.36 4.87602C30.639 2.96402 37.918 5.69602 45.587 12.487C46.075 12.916 46.563 13.387 47.07 13.853C44.0508 17.1158 41.2545 20.578 38.7 24.216C34.2888 24.6106 29.9077 25.2897 25.584 26.249C25.33 25.249 25.116 24.239 24.901 23.224C23.067 13.775 24.277 6.64902 27.36 4.87602ZM22.579 56.318C21.759 56.084 20.959 55.83 20.159 55.557C15.7394 54.2543 11.5797 52.194 7.865 49.468C6.89127 48.7938 6.06442 47.9291 5.43447 46.9261C4.80452 45.9232 4.38456 44.8029 4.2 43.633C4.2 40.062 10.367 35.495 19.266 32.392C20.378 32.002 21.51 31.65 22.642 31.319C23.9686 35.5543 25.5655 39.7002 27.423 43.731C25.5458 47.8204 23.9293 52.0245 22.583 56.318H22.579ZM45.334 75.443C42.1167 78.3926 38.3861 80.7275 34.327 82.332C33.2577 82.845 32.0942 83.1323 30.9089 83.176C29.7237 83.2197 28.5422 83.0189 27.438 82.586C24.338 80.786 23.047 73.902 24.803 64.632C25.018 63.539 25.252 62.446 25.525 61.373C29.893 62.3128 34.3205 62.9517 38.776 63.285C41.3571 66.9381 44.1734 70.4191 47.207 73.706C46.583 74.311 45.958 74.896 45.334 75.443ZM50.115 70.701C48.124 68.554 46.134 66.173 44.202 63.617C46.075 63.695 48.007 63.734 49.959 63.734C51.969 63.734 53.94 63.695 55.892 63.597C54.0969 66.0667 52.1687 68.4369 50.116 70.697L50.115 70.701ZM75.621 76.556C75.5311 77.7403 75.1989 78.8936 74.645 79.9443C74.0911 80.9949 73.3274 81.9207 72.401 82.664C69.301 84.464 62.682 82.118 55.54 75.99C54.72 75.29 53.901 74.526 53.062 73.746C56.0455 70.4528 58.798 66.9575 61.3 63.285C65.7787 62.9137 70.226 62.2291 74.609 61.236C74.809 62.036 74.98 62.836 75.136 63.617C76.0888 67.8639 76.2542 72.2495 75.624 76.556H75.621ZM79.173 55.577C78.627 55.753 78.08 55.928 77.514 56.084C76.1382 51.8261 74.4758 47.6663 72.538 43.633C74.4034 39.6525 76.0006 35.5516 77.319 31.358C78.334 31.651 79.31 31.958 80.246 32.275C89.34 35.397 95.722 40.042 95.722 43.594C95.722 47.419 88.911 52.357 79.173 55.577ZM49.959 52.649C51.7268 52.649 53.4548 52.1248 54.9247 51.1427C56.3945 50.1606 57.5401 48.7646 58.2166 47.1314C58.8931 45.4982 59.0701 43.7011 58.7253 41.9673C58.3804 40.2335 57.5291 38.6409 56.2791 37.3909C55.0291 36.1409 53.4365 35.2896 51.7027 34.9448C49.9689 34.5999 48.1718 34.7769 46.5386 35.4534C44.9054 36.1299 43.5094 37.2755 42.5273 38.7453C41.5452 40.2152 41.021 41.9433 41.021 43.711C41.0209 44.8848 41.252 46.0471 41.7011 47.1316C42.1502 48.2161 42.8086 49.2014 43.6386 50.0314C44.4686 50.8614 45.454 51.5198 46.5384 51.9689C47.6229 52.4181 48.7852 52.6492 49.959 52.649Z" fill="url(#paint0_linear_241_73)"/>
</g>
<defs>
<linearGradient id="paint0_linear_241_73" x1="49.9585" y1="-0.00500488" x2="49.9585" y2="87.4277" gradientUnits="userSpaceOnUse">
<stop stop-color="#0291D9"/>
<stop offset="1" stop-color="#5EC4F3"/>
</linearGradient>
<clipPath id="clip0_241_73">
<rect width="99.917" height="87.432" fill="white"/>
</clipPath>
</defs>
</svg>
