<svg width="73" height="71" viewBox="0 0 73 71" fill="none" xmlns="http://www.w3.org/2000/svg">
<g clip-path="url(#clip0_241_79)">
<path d="M4.62991 16.477C-1.82209 25.747 -1.02309 37.804 3.90991 47.648C4.02191 47.888 4.14691 48.116 4.26891 48.348C4.339 48.503 4.41711 48.6542 4.50291 48.801C4.5458 48.8876 4.59354 48.9718 4.64592 49.053C4.72492 49.211 4.80991 49.363 4.89191 49.515L5.36791 50.321C5.45591 50.47 5.54091 50.616 5.64191 50.765C5.80891 51.051 6.00691 51.333 6.17991 51.619C6.25891 51.738 6.33191 51.856 6.41991 51.975C6.71458 52.4377 7.02858 52.8873 7.36191 53.324C7.59891 53.649 7.83591 53.965 8.09091 54.281C8.17291 54.396 8.26391 54.512 8.34891 54.627L9.02091 55.445C9.10291 55.539 9.18491 55.645 9.27291 55.745C9.57291 56.104 9.88691 56.453 10.2029 56.806C10.2029 56.812 10.2119 56.818 10.2179 56.827C10.6029 57.3136 11.0347 57.7614 11.5069 58.164C11.7499 58.413 11.9929 58.664 12.2519 58.906L12.5589 59.201C12.8959 59.517 13.2339 59.833 13.5889 60.137C13.5949 60.137 13.5979 60.143 13.6039 60.146L13.7769 60.298C14.0869 60.568 14.3999 60.839 14.7189 61.088L15.0989 61.407C15.3569 61.614 15.6249 61.807 15.8889 62.015L16.3019 62.331C16.5849 62.544 16.8859 62.753 17.1739 62.96C17.2799 63.036 17.3869 63.112 17.4959 63.182L17.5839 63.252L18.4379 63.814L18.8029 64.057C19.2499 64.343 19.6939 64.613 20.1339 64.881C20.2619 64.945 20.3889 65.015 20.5079 65.088C20.8359 65.276 21.1769 65.468 21.5079 65.644C21.6899 65.744 21.8789 65.835 22.0669 65.93C22.2949 66.058 22.5319 66.182 22.7749 66.31C22.8336 66.328 22.8906 66.3514 22.9449 66.38C23.0449 66.426 23.1399 66.474 23.2369 66.523C23.6019 66.705 23.9819 66.879 24.3769 67.052C24.4556 67.0814 24.5327 67.1148 24.6079 67.152C25.0459 67.343 25.4829 67.526 25.9359 67.705C26.0359 67.735 26.1489 67.787 26.2549 67.827C26.6649 67.982 27.0879 68.14 27.5039 68.289L27.6559 68.344C28.1209 68.502 28.5799 68.654 29.0559 68.8C29.1649 68.83 29.2779 68.87 29.3929 68.9C29.865 69.0619 30.3449 69.1997 30.8309 69.313C62.0139 74.996 71.0769 50.564 71.0769 50.564C63.4639 60.478 49.9539 63.092 37.1579 60.183C36.6839 60.074 36.2099 59.922 35.7329 59.783C35.1542 59.6123 34.5799 59.429 34.0099 59.233L33.8219 59.16C33.4089 59.02 33.0109 58.865 32.6059 58.71C32.4959 58.6647 32.3846 58.623 32.2719 58.585C31.8249 58.406 31.3909 58.22 30.9589 58.029C30.8649 57.999 30.7859 57.956 30.6919 57.92C30.3246 57.7507 29.9579 57.5783 29.5919 57.403C29.4799 57.354 29.3789 57.303 29.2699 57.245C28.9839 57.111 28.6989 56.959 28.4189 56.813C28.2269 56.721 28.0376 56.6237 27.8509 56.521C27.5079 56.339 27.1639 56.141 26.8209 55.953C26.7209 55.88 26.5989 55.819 26.4809 55.753C26.0329 55.4863 25.5892 55.2137 25.1499 54.935C25.0279 54.859 24.9082 54.779 24.7909 54.695C24.4682 54.495 24.1522 54.2863 23.8429 54.069C23.7369 53.999 23.6429 53.923 23.5299 53.847C23.2279 53.6377 22.9299 53.423 22.6359 53.203C22.5079 53.103 22.3719 53.003 22.2359 52.903C21.9689 52.693 21.6979 52.493 21.4309 52.271L21.0719 51.985C20.7279 51.7077 20.3896 51.423 20.0569 51.131C20.0225 51.0973 19.985 51.0668 19.9449 51.04L18.8899 50.08L18.5899 49.794C18.3409 49.542 18.0899 49.294 17.8299 49.049L17.5349 48.749C17.2136 48.4297 16.9006 48.1023 16.5959 47.767L16.5499 47.718C16.2279 47.365 15.9149 47.007 15.5989 46.642C15.5169 46.548 15.4409 46.447 15.3559 46.347L14.6689 45.505C14.3182 45.0557 13.9739 44.6017 13.6359 44.143C6.53591 34.454 3.97091 21.081 9.65091 10.112M24.6499 8.669C19.9729 15.383 20.2369 24.361 23.8779 31.461C24.4798 32.6559 25.1676 33.8056 25.9359 34.901C26.6156 35.9935 27.4237 37.0007 28.3429 37.901C28.6679 38.272 29.0209 38.63 29.3889 38.992L29.6629 39.266C30.0096 39.5993 30.3642 39.9287 30.7269 40.254L30.7729 40.294C31.1829 40.652 31.6022 40.9983 32.0309 41.333C32.1309 41.403 32.2219 41.485 32.3229 41.555C32.7479 41.883 33.1769 42.199 33.6229 42.512L33.6689 42.539C33.8569 42.676 34.0579 42.8 34.2689 42.939C34.3539 42.994 34.4509 43.067 34.5429 43.121C34.8649 43.328 35.1809 43.521 35.5059 43.721C35.5579 43.742 35.6059 43.77 35.6519 43.791C35.9259 43.958 36.2229 44.119 36.5089 44.268C36.6089 44.329 36.7089 44.374 36.8089 44.432C37.0089 44.532 37.2089 44.639 37.4089 44.742L37.5089 44.785C37.9189 44.985 38.3389 45.174 38.7489 45.362C38.8489 45.402 38.9399 45.435 39.0289 45.477C39.3659 45.623 39.7099 45.763 40.0469 45.893C40.1989 45.945 40.3419 46.005 40.4849 46.051C40.7949 46.166 41.1199 46.273 41.4269 46.379L41.8519 46.516C42.2964 46.6778 42.7514 46.8088 43.2139 46.908C67.2789 50.891 72.8529 32.351 72.8529 32.351C67.8349 39.572 58.1239 43.013 47.7759 40.321C47.3186 40.2023 46.8646 40.069 46.4139 39.921C46.2679 39.881 46.1399 39.836 46.0009 39.793C45.6849 39.684 45.3599 39.577 45.0529 39.462L44.6149 39.298C44.2749 39.161 43.9279 39.034 43.5969 38.888C43.4969 38.842 43.3969 38.812 43.3199 38.766C42.8949 38.575 42.4659 38.386 42.0529 38.182L41.4269 37.857L41.0649 37.675C40.7849 37.529 40.5269 37.375 40.2599 37.219C40.1954 37.1892 40.1326 37.1558 40.0719 37.119C39.7499 36.919 39.4159 36.719 39.1089 36.519C39.0089 36.461 38.9089 36.391 38.8139 36.331L38.1839 35.921C37.7459 35.621 37.3179 35.289 36.8839 34.973C36.7839 34.885 36.6929 34.812 36.5979 34.733C31.9786 31.1655 28.5478 26.283 26.7569 20.728C25.8144 17.8602 25.4788 14.8277 25.7715 11.8232C26.0642 8.81873 26.9787 5.90799 28.4569 3.276M41.4839 2.83C40.1651 4.80693 39.37 7.08645 39.1732 9.45475C38.9765 11.823 39.3844 14.2025 40.3589 16.37C41.4014 18.7249 42.9091 20.8447 44.7915 22.6022C46.6739 24.3596 48.8921 25.7185 51.3129 26.597C51.5129 26.673 51.7019 26.737 51.9059 26.81L52.1729 26.892C52.4529 26.98 52.7349 27.083 53.0239 27.147C66.3239 29.712 69.9239 20.318 70.8919 18.938C67.7249 23.485 62.4149 24.576 55.9019 22.992C55.3706 22.8593 54.8471 22.697 54.3339 22.506C53.6958 22.2817 53.0699 22.024 52.4589 21.734C51.3025 21.1733 50.2033 20.5015 49.1769 19.728C43.3409 15.309 39.7279 6.872 43.5329 0" fill="url(#paint0_linear_241_79)"/>
</g>
<defs>
<linearGradient id="paint0_linear_241_79" x1="36.4267" y1="0" x2="36.4267" y2="70.1703" gradientUnits="userSpaceOnUse">
<stop stop-color="#0291D9"/>
<stop offset="1" stop-color="#5EC4F3"/>
</linearGradient>
<clipPath id="clip0_241_79">
<rect width="72.853" height="70.169" fill="white"/>
</clipPath>
</defs>
</svg>
