<svg width="122" height="53" viewBox="0 0 122 53" fill="none" xmlns="http://www.w3.org/2000/svg">
<g clip-path="url(#clip0_241_71)">
<path d="M116.337 18.972C116.337 15.079 116.945 12.781 116.945 8.603C116.945 2.108 114.552 0.0190001 109.254 0.0190001H105.361V4.619H106.561C109.261 4.619 109.846 5.512 109.846 8.819C109.846 11.919 109.546 15.01 109.546 18.599C109.546 23.199 111.046 24.98 114.028 25.683V25.983C111.028 26.683 109.546 28.471 109.546 33.067C109.546 36.656 109.846 39.562 109.846 42.847C109.846 46.247 109.146 47.139 106.561 47.139V47.226H105.361V52.016H109.254C114.533 52.016 116.945 49.927 116.945 43.432C116.945 39.14 116.337 36.937 116.337 33.063C116.337 30.974 117.628 28.771 121.521 28.581V23.397C117.628 23.264 116.337 21.061 116.337 18.972ZM96.283 25.049C93.283 23.849 90.491 23.149 90.491 21.156C90.491 19.656 91.691 18.763 93.891 18.763C96.2329 18.8718 98.4745 19.7459 100.272 21.251L104.26 15.972C101.307 13.5244 97.6114 12.1518 93.777 12.079C86.997 12.079 82.402 15.972 82.402 21.46C82.402 26.341 86.694 28.847 90.283 30.234C93.383 31.434 96.383 32.434 96.383 34.434C96.383 35.934 95.183 36.922 92.49 36.922C90.002 36.922 87.495 35.915 84.799 33.822L80.811 39.614C84.0517 42.2019 88.0411 43.6749 92.186 43.814C100.162 43.814 104.454 39.614 104.454 34.129C104.454 28.644 100.176 26.34 96.283 25.049ZM28.125 36.326C27.425 36.326 26.525 35.718 26.525 33.838V0H12.363C6.96998 0 4.57698 2.089 4.57698 8.584C4.57698 12.876 5.18498 15.269 5.18498 18.953C5.18498 21.042 3.89398 23.245 0.000976562 23.435V28.619C3.89398 28.714 5.18498 30.919 5.18498 33.006C5.18498 36.69 4.57698 38.893 4.57698 43.185C4.57698 49.68 6.96998 51.769 12.268 51.769H16.161V47.169H14.961C12.473 47.169 11.676 46.162 11.676 42.877C11.676 39.592 11.976 36.777 11.976 33.097C11.976 28.497 10.476 26.716 7.49398 26.013V25.713C10.494 25.013 11.976 23.225 11.976 18.629C11.976 15.04 11.676 12.134 11.676 8.849C11.676 5.564 12.376 4.649 14.961 4.649H17.639V33.291C17.639 39.391 19.728 43.375 25.824 43.375C27.3473 43.4045 28.8641 43.1676 30.306 42.675L29.303 36.178C28.9204 36.2871 28.5237 36.3383 28.126 36.33L28.125 36.326ZM72.125 25.045C69.025 23.845 66.238 23.145 66.238 21.152C66.238 19.652 67.438 18.759 69.638 18.759C71.9799 18.8678 74.2215 19.7418 76.019 21.247L80.007 15.968C77.0545 13.5204 73.3584 12.1478 69.524 12.075C62.744 12.075 58.149 15.968 58.149 21.456C58.149 26.337 62.441 28.843 66.03 30.23C69.13 31.43 72.13 32.43 72.13 34.43C72.13 35.93 70.93 36.918 68.237 36.918C65.749 36.918 63.242 35.911 60.546 33.818L56.653 39.61C59.8937 42.1979 63.8831 43.6709 68.028 43.81C76.004 43.81 80.296 39.61 80.296 34.125C80.312 28.638 76.02 26.34 72.127 25.049L72.125 25.045ZM42.693 11.983C35.401 11.983 28.431 18.083 28.621 27.65C28.621 37.525 35.116 43.317 43.681 43.317C47.492 43.2359 51.1983 42.0552 54.354 39.917L51.354 34.638C49.4043 35.8552 47.1573 36.5125 44.859 36.538C40.871 36.538 37.775 34.638 36.978 30.043H55.054C55.2403 28.8236 55.3406 27.5925 55.354 26.359C55.468 18.269 51.062 11.983 42.687 11.983H42.693ZM36.993 24.555C37.601 20.567 39.993 18.668 42.785 18.668C46.374 18.668 47.78 21.156 47.78 24.555H36.993Z" fill="url(#paint0_linear_241_71)"/>
</g>
<defs>
<linearGradient id="paint0_linear_241_71" x1="60.761" y1="0" x2="60.761" y2="52.016" gradientUnits="userSpaceOnUse">
<stop stop-color="#0291D9"/>
<stop offset="1" stop-color="#5EC4F3"/>
</linearGradient>
<clipPath id="clip0_241_71">
<rect width="121.522" height="52.016" fill="white"/>
</clipPath>
</defs>
</svg>
